# xmcd
#
# Track frame offsets:
#	150
#	10549
#	23566
#	39091
#	59682
#	75389
#	89893
#	102189
#	123086
#	140872
#	153964
#
# Disc length: 2207 seconds
#
# Revision: 1
# Processed by: cddbd v1.5.2PL0 Copyright (c) Steve Scherf et al.
# Submitted via: audiograbber 1.83.01
#
DISCID=7e089d0b
DTITLE=Brett Eldridge - Glow
DYEAR=2016
DGENRE=Country
TTITLE0=Let It Snow
TTITLE1=Baby Its Cold Outside
TTITLE2=I'll Be Home For Christmas
TTITLE3=The Christmas Song
TTITLE4=Glow
TTITLE5=White Christmas
TTITLE6=Winter Wonderland
TTITLE7=Have Yourself a Merry Little Christmas
TTITLE8=Silent Night
TTITLE9=It's Beginning to Look a Lot Like Christmas
TTITLE10=The First Noel
EXTD=
EXTT0=
EXTT1=
EXTT2=
EXTT3=
EXTT4=
EXTT5=
EXTT6=
EXTT7=
EXTT8=
EXTT9=
EXTT10=
PLAYORDER=
